<svg width="106" height="100" viewBox="0 0 106 100" fill="none" xmlns="http://www.w3.org/2000/svg">
<path d="M95.5429 48.537L81.5703 35.3515C81.1036 34.9112 80.4706 34.6638 79.8106 34.6638C79.1505 34.6638 78.5175 34.9112 78.0508 35.3515C77.5841 35.7918 77.3219 36.389 77.3219 37.0116C77.3219 37.6343 77.5841 38.2315 78.0508 38.6718L87.6819 47.7558H12.4219C11.763 47.7558 11.1311 48.0027 10.6652 48.4422C10.1992 48.8818 9.9375 49.4779 9.9375 50.0995C9.9375 50.7211 10.1992 51.3173 10.6652 51.7568C11.1311 52.1963 11.763 52.4433 12.4219 52.4433H87.891L78.0508 61.7187C77.5841 62.159 77.3219 62.7561 77.3219 63.3788C77.3219 64.0015 77.5841 64.5987 78.0508 65.039C78.5175 65.4793 79.1505 65.7266 79.8106 65.7266C80.4706 65.7266 81.1036 65.4793 81.5703 65.039L95.5449 51.8554C95.7761 51.6375 95.9594 51.3788 96.0845 51.0941C96.2095 50.8093 96.2738 50.504 96.2736 50.1958C96.2734 49.8876 96.2087 49.5824 96.0834 49.2977C95.958 49.0131 95.7743 48.7546 95.5429 48.537Z" fill="white"/>
</svg>
