<svg width="106" height="100" viewBox="0 0 106 100" fill="none" xmlns="http://www.w3.org/2000/svg">
<path d="M10.4571 51.463L24.4297 64.6485C24.8964 65.0888 25.5294 65.3362 26.1894 65.3362C26.8495 65.3362 27.4825 65.0888 27.9492 64.6485C28.4159 64.2082 28.6781 63.611 28.6781 62.9884C28.6781 62.3657 28.4159 61.7685 27.9492 61.3282L18.3181 52.2442H93.5781C94.237 52.2442 94.8689 51.9973 95.3348 51.5578C95.8008 51.1182 96.0625 50.5221 96.0625 49.9005C96.0625 49.2789 95.8008 48.6827 95.3348 48.2432C94.8689 47.8037 94.237 47.5567 93.5781 47.5567H18.109L27.9492 38.2813C28.4159 37.841 28.6781 37.2439 28.6781 36.6212C28.6781 35.9985 28.4159 35.4013 27.9492 34.961C27.4825 34.5207 26.8495 34.2734 26.1894 34.2734C25.5294 34.2734 24.8964 34.5207 24.4297 34.961L10.4551 48.1446C10.2239 48.3625 10.0406 48.6212 9.91553 48.9059C9.7905 49.1907 9.72624 49.496 9.72644 49.8042C9.72663 50.1124 9.79127 50.4176 9.91665 50.7023C10.042 50.9869 10.2257 51.2454 10.4571 51.463Z" fill="white"/>
</svg>
